# xmcd CD database file
#
# Track frame offsets:
#	150
#	20992
#	43167
#
# Disc length: 848 seconds
#
# Revision: 0
# Processed by: cddbd v1.5PL3 Copyright (c) Steve Scherf et al.
# Submitted via: CDex 1.50beta9
#
DISCID=25034e03
DTITLE=ココナッツ娘。 - 常夏娘
DYEAR=2000
DGENRE=Rock
TTITLE0=常夏娘
TTITLE1=常夏娘（レゲエバージョン）
TTITLE2=常夏娘(Backing Track)
EXTD=YEAR: 2000
EXTT0=
EXTT1=
EXTT2=
PLAYORDER=
